<svg width="107" height="108" viewBox="0 0 107 108" fill="none" xmlns="http://www.w3.org/2000/svg">
<g clip-path="url(#clip0)">
<path fill-rule="evenodd" clip-rule="evenodd" d="M68.498 84.6435C68.4984 84.9518 68.438 85.2571 68.3202 85.542C68.2024 85.8269 68.0295 86.0857 67.8115 86.3037C67.5935 86.5217 67.3347 86.6946 67.0498 86.8124C66.7649 86.9302 66.4596 86.9906 66.1513 86.9902L39.6348 86.9902C39.3265 86.9906 39.0212 86.9302 38.7363 86.8124C38.4514 86.6946 38.1925 86.5217 37.9745 86.3037C37.7566 86.0857 37.5837 85.8269 37.4659 85.542C37.3481 85.2571 37.2877 84.9518 37.2881 84.6435L37.2881 72.0349L29.0547 58.306C28.4275 57.2609 28.0828 56.0707 28.0543 54.8521C28.0258 53.6336 28.3146 52.4286 28.8923 51.3553L52.893 6.77777L76.8971 51.3586C77.4736 52.4311 77.7617 53.6349 77.7332 54.8521C77.7047 56.0693 77.3607 57.2583 76.7347 58.3027L68.498 72.0283L68.498 84.6435ZM64.8255 69.0385L72.7141 55.893C72.9236 55.5441 73.0387 55.1467 73.048 54.7399C73.0573 54.3331 72.9605 53.9308 72.7672 53.5728L52.8964 16.6651L33.0189 53.5794C32.8279 53.9365 32.7327 54.3371 32.7426 54.742C32.7524 55.1468 32.8671 55.5423 33.0753 55.8897L40.9639 69.0418L64.8288 69.0418L64.8255 69.0385Z" fill="#00C4F0"/>
<path fill-rule="evenodd" clip-rule="evenodd" d="M52.6943 17.0398L49.5786 48.1834C48.923 48.839 48.4766 49.6742 48.2957 50.5835C48.1149 51.4928 48.2077 52.4353 48.5625 53.2918C48.9173 54.1483 49.5181 54.8804 50.2889 55.3955C51.0598 55.9106 51.9661 56.1855 52.8932 56.1855C53.8203 56.1855 54.7265 55.9106 55.4974 55.3955C56.2682 54.8804 56.8691 54.1483 57.2238 53.2918C57.5786 52.4353 57.6715 51.4928 57.4906 50.5835C57.3097 49.6742 56.8633 48.839 56.2077 48.1834L53.092 17.0398L52.8932 16.6685L52.6943 17.0398Z" fill="#00C4F0"/>
</g>
<defs>
<clipPath id="clip0">
<rect width="75" height="75" fill="white" transform="translate(106.744 54) rotate(135)"/>
</clipPath>
</defs>
</svg>
